<svg width="19" height="18" viewBox="0 0 19 18" fill="currentColor" xmlns="http://www.w3.org/2000/svg">
<path d="M13.3809 11H12.5909L12.3109 10.73C13.2909 9.59 13.8809 8.11 13.8809 6.5C13.8809 2.91 10.9709 0 7.38086 0C3.79086 0 0.880859 2.91 0.880859 6.5C0.880859 10.09 3.79086 13 7.38086 13C8.99086 13 10.4709 12.41 11.6109 11.43L11.8809 11.71V12.5L16.8809 17.49L18.3709 16L13.3809 11V11ZM7.38086 11C4.89086 11 2.88086 8.99 2.88086 6.5C2.88086 4.01 4.89086 2 7.38086 2C9.87086 2 11.8809 4.01 11.8809 6.5C11.8809 8.99 9.87086 11 7.38086 11Z" fill="white"/>
</svg>
